{"title":"Mission Impossible 4 Ghost Protocol 2011 V2 CAM XViD NEW SOURCE ","uid":7025795,"size":1427424589,"categoryP":"video","categoryS":"movies","magnet":"?xt=urn:btih:98e9978233723ca7dfdb4c86e34188ad83a9efd0&amp;dn=Mission+Impossible+4+Ghost+Protocol+2011+V2+CAM+XViD+NEW+SOURCE+&amp;tr=udp%3A%2F%2Ftracker.openbittorrent.com%3A80&amp;tr=udp%3A%2F%2Fopen.demonii.com%3A1337&amp;tr=udp%3A%2F%2Ftracker.coppersurfer.tk%3A6969&amp;tr=udp%3A%2F%2Fexodus.desync.com%3A6969","seeders":0,"leechers":1,"uploader":"maximersk","files":3,"time":1328996165,"description":"he IMF is shut down when it's implicated in the bombing of the Kremlin, causing Ethan Hunt and his new team to go rogue to clear their organization's name.\n\nGeneral information\nFormat : AVI\nFormat/Info : Audio Video Interleave\nFile size : 1.32 GiB\nDuration : 2h 6mn\nOverall bit rate : 1 500 Kbps\nWriting application : VirtualDubMod 1.5.10.2 (build 2540/release)\nWriting library : VirtualDubMod build 2540/release\n\nVideo Information\nID : 0\nFormat : MPEG-4 Visual\nFormat profile : Advanced Simple@L5\nFormat settings, BVOP : 2\nFormat settings, QPel : No\nFormat settings, GMC : No warppoints\nFormat settings, Matrix : Default (H.263)\nMuxing mode : Packed bitstream\nCodec ID : XVID\nCodec ID/Hint : XviD\nDuration : 2h 6mn\nBit rate : 1 362 Kbps\nWidth : 720 pixels\nHeight : 292 pixels\nDisplay aspect ratio : 2.466\nFrame rate : 25.000 fps\nColor space : YUV\nChroma subsampling : 4:2:0\nBit depth : 8 bits\nScan type : Progressive\nCompression mode : Lossy\nBits/(Pixel*Frame) : 0.259\nStream size : 1.20 GiB (91%)\nWriting library : XviD 64\n\nAudio Information\nID : 1\nFormat : MPEG Audio\nFormat version : Version 1\nFormat profile : Layer 3\nMode : Joint stereo\nMode extension : MS Stereo\nCodec ID : 55\nCodec ID/Hint : MP3\nDuration : 2h 6mn\nBit rate mode : Constant\nBit rate : 128 Kbps\nChannel(s) : 2 channels\nSampling rate : 44.1 KHz\nCompression mode : Lossy\nStream size : 116 MiB (9%)","torrent":{"xt":"urn:btih:98e9978233723ca7dfdb4c86e34188ad83a9efd0","amp;dn":"Mission+Impossible+4+Ghost+Protocol+2011+V2+CAM+XViD+NEW+SOURCE+","amp;tr":["udp%3A%2F%2Ftracker.openbittorrent.com%3A80","udp%3A%2F%2Fopen.demonii.com%3A1337","udp%3A%2F%2Ftracker.coppersurfer.tk%3A6969","udp%3A%2F%2Fexodus.desync.com%3A6969"],"infoHash":"98e9978233723ca7dfdb4c86e34188ad83a9efd0","infoHashBuffer":{"type":"Buffer","data":[152,233,151,130,51,114,60,167,223,219,76,134,227,65,136,173,131,169,239,208]},"announce":[],"urlList":[]}}